<?xml version="1.0" encoding="UTF-8"?>
<svg id="Layer_1" data-name="Layer 1" xmlns="http://www.w3.org/2000/svg" viewBox="0 0 292.71 102.95">
  <defs>
    <style>
      .cls-1 {
        fill: #0d4f8b;
      }
    </style>
  </defs>
  <g>
    <path class="cls-1" d="M59.34,32.73c.99-.38,1.77-.63,2.73-.92,4.94-1.48,7.42-2.13,10.6-2.69,2.24-.39,4.52-.68,6.79-.48-.15.02-.31.04-.46.06-2.35.32-4.68.81-6.95,1.48-1.14.34-2.26.71-3.37,1.14-.55.21-1.1.43-1.65.66l3.22.28c2.73,0,4.51.32,5.33.97.83.65,1,1.63.52,2.94-.48,1.31-1.47,2.45-2.97,3.42-1.48-.68-3.61-1.02-6.42-1.02h-12.02l-3.47,9.54h7.44c2.87,0,4.82.26,5.83.78,1.01.52,1.3,1.38.86,2.59-.44,1.2-1.38,2.2-2.81,2.99-1.16-.36-3.36-.54-6.6-.54h-6.84l-4.53,12.45c-.1.26-.28.61-.61.93-.15.14-.36.34-.68.42-.18.05-.32.04-.38.04-.43-.02-3.42-.16-7.52-.35-.61,1.38-2.1,5.72-1.67,8.78.28,2.04,1.46,4.27,2.33,5.33,0,0,1.15,1.4,1.04,1.51,0,0,0,0,0,0,0,0,.03-.05.01-.05-.59-.03-3.6-1.19-5.52-4.33-2.12-3.46-1.67-7.27-1.37-8.92.23-1.1.55-2.31.97-3.59.52-1.57,1.12-2.96,1.7-4.16.12-.25.28-.56.6-1.18.92-1.79,1.61-3.12,2.3-4.34.61-1.09,1.51-2.61,2.73-4.4,1.73-2.51,3.31-4.56,4.56-6.08,1.87-2.29,3.7-4.51,6.48-7.02,1.78-1.61,3.38-2.82,4.55-3.65,1.18-.73,2.95-1.73,5.25-2.62Z"/>
    <path d="M75.41,25.44c-.07-.36-6.71.7-6.71.7-7.29,1.16-17.51,2.85-30.34,5.18-.93.26-2.06.67-3.27,1.3-1.23.63-2.22,1.32-2.98,1.93.37.18.96.54,1.46,1.2.53.7.69,1.38.78,1.76.13.55.14,1.03.12,1.35-3.31,4.29-8.43,12.28-9.71,23.23-1,8.54.67,16.08.9,16.07.18,0-.65-4.44.48-10.21.98-5.02,2.93-8.4,6.12-13.87,3.71-6.33,5.81-9.93,9.93-13.82,4.75-4.48,9.37-6.69,13.28-8.52,10.56-4.94,19.99-5.93,19.92-6.3Z"/>
    <path class="cls-1" d="M90.9,37.3l-10.3,28.3c-.71,1.94-.6,3.22.33,3.83-1.93,1.54-3.83,2.32-5.69,2.32s-3.04-.52-3.53-1.56c-.48-1.04-.33-2.66.47-4.85l10.32-28.35c.68-1.87.54-3.11-.42-3.72,1.86-1.54,3.77-2.32,5.75-2.32,3.59,0,4.62,2.12,3.07,6.36Z"/>
    <path class="cls-1" d="M110.59,31.48h19.51c3.45,0,4.67,1.38,3.66,4.15-.35.97-1.18,2.01-2.49,3.13-1.24-.65-3.24-.97-6.01-.97h-4.26l-10.12,27.81c-.71,1.94-.58,3.22.38,3.83-1.93,1.54-3.86,2.32-5.8,2.32-3.52,0-4.5-2.14-2.95-6.41l10.02-27.54h-6.79c-3.45,0-4.67-1.38-3.66-4.15.35-.97,1.18-2.01,2.49-3.13,1.24.65,3.24.97,6.01.97Z"/>
    <path class="cls-1" d="M147.93,70.61c-1.55.61-3.11.92-4.67.92s-2.59-.54-3.08-1.62c-.49-1.08-.35-2.68.42-4.8l4.12-11.16-4.01-16.39c-.38-1.44-1.21-2.21-2.5-2.32,1.98-2.87,4.32-4.31,7.01-4.31,1.36,0,2.38.44,3.05,1.32.67.88,1.21,2.18,1.62,3.91l2.49,10.19,8.88-7.81c1.38-1.22,2.26-2.35,2.64-3.4s.3-2.01-.23-2.91c2.04-.86,3.82-1.29,5.35-1.29s2.65.4,3.37,1.19c.72.79.82,1.91.29,3.34-.52,1.44-1.75,2.98-3.68,4.64l-15.86,13.8-4.47,12.13c-.71,1.94-.96,3.47-.75,4.58Z"/>
    <path class="cls-1" d="M210.49,36.89c.68,1.88.91,4.02.71,6.41-.21,2.39-.84,5.05-1.91,7.98-1.07,2.93-2.37,5.6-3.91,8-1.54,2.41-3.34,4.56-5.4,6.47s-4.46,3.38-7.19,4.42c-2.73,1.04-5.66,1.56-8.79,1.56-5.96,0-9.74-1.89-11.32-5.69s-1.28-8.71.92-14.74c2.2-6.04,5.46-10.94,9.8-14.71s9.49-5.66,15.45-5.66c3.16,0,5.72.52,7.68,1.56,1.96,1.04,3.27,2.51,3.95,4.39ZM186.86,66.4c3.16,0,5.9-1.4,8.21-4.2,1.83-2.27,3.36-5.1,4.61-8.52.27-.75.54-1.54.81-2.37,1.4-4.53,1.79-8.18,1.18-10.94-.61-2.77-2.5-4.15-5.66-4.15-5.46,0-9.75,4.29-12.88,12.88-2.63,7.22-2.93,12.29-.9,15.2.96,1.4,2.5,2.1,4.62,2.1Z"/>
    <path class="cls-1" d="M218.54,56.97l7.28-20c.67-1.83.51-3.07-.48-3.72,1.93-1.54,3.84-2.32,5.72-2.32s3.07.52,3.55,1.56c.48,1.04.33,2.64-.45,4.8l-7.61,20.91c-.86,2.37-.8,4.17.19,5.39.99,1.22,2.65,1.83,4.96,1.83s4.42-.61,6.3-1.83c1.88-1.22,3.25-3.02,4.12-5.39l7.73-21.24c.67-1.83.51-3.07-.48-3.72,1.93-1.54,3.86-2.32,5.8-2.32,3.56,0,4.56,2.12,3.02,6.36l-7.16,19.67c-1.69,4.63-4.34,8.26-7.97,10.86-3.63,2.61-8.19,3.91-13.69,3.91s-9.1-1.3-10.81-3.91-1.72-6.23-.03-10.86Z"/>
  </g>
  <g>
    <path d="M264.56,25.22h-1.84l.18-.93h4.77l-.18.93h-1.84l-1.13,5.71h-1.1l1.13-5.71Z"/>
    <path d="M268.78,24.29h1.21l.52,3.32.2,1.28h.04l.66-1.28,1.82-3.32h1.21l-1.33,6.64h-1.04l.65-3.18c.13-.63.36-1.47.54-2.09h-.03l-.81,1.5-1.76,3.12h-.5l-.55-3.12-.22-1.5h-.03c-.07.62-.15,1.47-.27,2.09l-.64,3.18h-1.01l1.33-6.64Z"/>
  </g>
</svg>