<?xml version="1.0" encoding="UTF-8"?>
<svg id="Layer_1" data-name="Layer 1" xmlns="http://www.w3.org/2000/svg" viewBox="0 0 454.48 163.97">
  <defs>
    <style>
      .cls-1 {
        fill: #0d4f8b;
      }
    </style>
  </defs>
  <g>
    <path d="M79.14,66.97c1.52-.59,2.72-.97,4.2-1.41,7.58-2.27,11.39-3.27,16.28-4.12,3.44-.6,6.95-1.04,10.43-.73-.23.03-.47.06-.7.09-3.61.48-7.18,1.25-10.67,2.28-1.75.52-3.47,1.1-5.18,1.74-.85.32-1.7.66-2.53,1.02l4.94.44c4.19,0,6.92.5,8.19,1.49,1.27.99,1.53,2.5.8,4.51-.73,2.01-2.25,3.77-4.56,5.26-2.27-1.05-5.55-1.57-9.85-1.57h-18.46l-5.33,14.65h11.42c4.41,0,7.4.4,8.96,1.2,1.56.8,2,2.12,1.32,3.97-.67,1.85-2.11,3.38-4.32,4.59-1.79-.55-5.16-.83-10.13-.83h-10.51l-6.96,19.12c-.15.4-.43.94-.93,1.42-.23.22-.55.52-1.04.65-.27.07-.5.06-.58.06-.66-.03-5.25-.24-11.55-.54-.94,2.11-3.22,8.78-2.56,13.49.44,3.13,2.24,6.56,3.58,8.19,0,0,1.76,2.15,1.6,2.32,0,0-.01.01-.01,0,0,0,.05-.07.02-.07-.91-.05-5.53-1.83-8.48-6.65-3.25-5.31-2.56-11.17-2.1-13.69.36-1.69.84-3.54,1.5-5.51.8-2.42,1.71-4.55,2.61-6.39.19-.39.44-.87.92-1.81,1.42-2.74,2.48-4.79,3.53-6.67.94-1.68,2.32-4,4.19-6.76,2.65-3.86,5.08-7,7-9.34,2.88-3.52,5.68-6.93,9.94-10.77,2.74-2.47,5.2-4.33,6.99-5.6,1.81-1.13,4.53-2.66,8.06-4.03Z"/>
    <path class="cls-1" d="M103.81,55.78c-.1-.55-10.3,1.07-10.3,1.07-11.19,1.78-26.88,4.37-46.58,7.95-1.43.41-3.16,1.03-5.03,1.99-1.88.97-3.4,2.03-4.57,2.97.57.28,1.48.83,2.24,1.84.81,1.07,1.06,2.12,1.2,2.71.19.85.21,1.58.19,2.07-5.09,6.59-12.95,18.86-14.91,35.67-1.53,13.11,1.03,24.69,1.38,24.68.27-.01-.99-6.81.74-15.67,1.51-7.7,4.49-12.9,9.4-21.3,5.69-9.72,8.93-15.25,15.25-21.22,7.3-6.88,14.38-10.27,20.4-13.08,16.21-7.58,30.7-9.1,30.59-9.68Z"/>
    <path d="M127.6,73.98l-15.81,43.45c-1.09,2.98-.92,4.94.51,5.88-2.96,2.37-5.87,3.56-8.74,3.56s-4.67-.8-5.42-2.4c-.74-1.6-.5-4.08.73-7.45l15.84-43.53c1.04-2.87.83-4.77-.65-5.71,2.85-2.37,5.79-3.56,8.83-3.56,5.52,0,7.09,3.26,4.72,9.76Z"/>
    <path d="M157.83,65.04h29.96c5.29,0,7.17,2.12,5.63,6.37-.54,1.49-1.82,3.09-3.82,4.8-1.9-.99-4.97-1.49-9.22-1.49h-6.54l-15.54,42.7c-1.09,2.98-.89,4.94.59,5.88-2.96,2.37-5.93,3.56-8.91,3.56-5.41,0-6.92-3.28-4.53-9.85l15.39-42.29h-10.43c-5.29,0-7.17-2.12-5.63-6.37.54-1.49,1.82-3.09,3.82-4.8,1.9.99,4.97,1.49,9.22,1.49Z"/>
    <path d="M215.17,125.13c-2.38.94-4.78,1.41-7.17,1.41s-3.98-.83-4.73-2.48c-.75-1.66-.53-4.11.65-7.36l6.32-17.13-6.15-25.16c-.58-2.21-1.86-3.39-3.84-3.56,3.04-4.41,6.63-6.62,10.77-6.62,2.1,0,3.66.68,4.68,2.03,1.02,1.35,1.86,3.35,2.49,6l3.82,15.64,13.64-12c2.12-1.87,3.47-3.61,4.05-5.21s.46-3.09-.36-4.47c3.13-1.32,5.87-1.99,8.21-1.99s4.07.61,5.17,1.82c1.1,1.22,1.25,2.93.45,5.13-.8,2.21-2.69,4.58-5.65,7.12l-24.35,21.19-6.86,18.62c-1.09,2.98-1.47,5.33-1.15,7.04Z"/>
    <path d="M311.23,73.36c1.04,2.89,1.4,6.18,1.09,9.85-.32,3.67-1.29,7.75-2.93,12.25-1.64,4.5-3.64,8.6-6,12.29-2.37,3.7-5.13,7.01-8.29,9.93s-6.84,5.19-11.04,6.79c-4.2,1.6-8.69,2.4-13.49,2.4-9.16,0-14.95-2.91-17.39-8.73-2.43-5.82-1.97-13.37,1.41-22.64,3.37-9.27,8.39-16.8,15.05-22.59s14.57-8.69,23.73-8.69c4.86,0,8.78.8,11.79,2.4,3,1.6,5.03,3.85,6.07,6.75ZM274.95,118.67c4.86,0,9.06-2.15,12.61-6.46,2.81-3.48,5.17-7.83,7.07-13.08.42-1.16.83-2.37,1.24-3.64,2.14-6.95,2.75-12.55,1.81-16.8-.94-4.25-3.83-6.37-8.69-6.37-8.39,0-14.98,6.59-19.78,19.78-4.04,11.09-4.49,18.87-1.38,23.34,1.48,2.15,3.84,3.23,7.1,3.23Z"/>
    <path d="M323.59,104.19l11.17-30.71c1.02-2.81.78-4.72-.74-5.71,2.96-2.37,5.89-3.56,8.79-3.56s4.72.8,5.46,2.4c.74,1.6.51,4.05-.7,7.36l-11.68,32.11c-1.33,3.64-1.23,6.4.3,8.28,1.52,1.88,4.06,2.82,7.62,2.82s6.78-.94,9.67-2.82c2.89-1.87,5-4.63,6.32-8.28l11.87-32.61c1.02-2.81.78-4.72-.74-5.71,2.96-2.37,5.93-3.56,8.91-3.56,5.46,0,7.01,3.26,4.64,9.76l-11,30.21c-2.59,7.12-6.67,12.68-12.23,16.68-5.57,4-12.57,6-21.01,6s-13.98-2-16.6-6-2.64-9.56-.05-16.68Z"/>
  </g>
  <g>
    <path d="M394.26,55.44h-2.82l.28-1.43h7.32l-.28,1.43h-2.82l-1.74,8.77h-1.68l1.74-8.77Z"/>
    <path d="M400.73,54.01h1.87l.81,5.1.3,1.97h.06l1.02-1.97,2.79-5.1h1.87l-2.04,10.2h-1.59l1-4.89c.21-.97.55-2.26.84-3.21h-.05l-1.24,2.31-2.7,4.79h-.77l-.84-4.79-.34-2.31h-.05c-.11.95-.24,2.25-.42,3.21l-.99,4.89h-1.55l2.04-10.2Z"/>
  </g>
</svg>